<svg xmlns="http://www.w3.org/2000/svg" xmlns:xlink="http://www.w3.org/1999/xlink" width="500" zoomAndPan="magnify" viewBox="0 0 375 374.999991" height="500" preserveAspectRatio="xMidYMid meet" version="1.0"><defs><g/><clipPath id="0434d4c430"><path d="M 75.230469 117.59375 L 187.730469 117.59375 L 187.730469 224.84375 L 75.230469 224.84375 Z M 75.230469 117.59375 " clip-rule="nonzero"/></clipPath><clipPath id="9cb88da283"><path d="M 187.9375 119.234375 L 299.6875 119.234375 L 299.6875 223.484375 L 187.9375 223.484375 Z M 187.9375 119.234375 " clip-rule="nonzero"/></clipPath><clipPath id="e2b6626348"><path d="M 313 98 L 374.992188 98 L 374.992188 266 L 313 266 Z M 313 98 " clip-rule="nonzero"/></clipPath></defs><g clip-path="url(#0434d4c430)"><path fill="#a61818" d="M 185.984375 153.464844 C 179.890625 131.015625 161.445312 117.609375 136.640625 117.609375 L 75.230469 117.609375 L 76.441406 120.386719 C 81.648438 132.316406 93.421875 140.027344 106.441406 140.03125 L 123.164062 140.03125 L 123.300781 140.027344 C 123.9375 139.980469 126.285156 139.839844 129.808594 139.839844 C 133.195312 139.839844 136.648438 139.972656 140.054688 140.234375 L 140.390625 140.257812 C 153.4375 141.285156 171.3125 144.699219 182.359375 155.097656 L 182.5 155.226562 C 182.558594 155.285156 182.617188 155.335938 182.671875 155.394531 L 187.929688 160.628906 Z M 187.667969 179.34375 L 187.652344 179.558594 C 184.335938 207.535156 164.582031 224.910156 136.09375 224.910156 L 96.917969 224.910156 L 96.917969 171.949219 L 98.898438 171.949219 C 110.371094 171.949219 119.699219 181.277344 119.699219 192.75 L 119.699219 202.125 L 137.050781 202.125 C 145.597656 202.125 152.792969 199.320312 157.867188 194.007812 C 163.027344 188.605469 165.753906 180.792969 165.753906 171.421875 L 165.753906 171.101562 C 165.753906 163.84375 164.160156 157.585938 161.011719 152.496094 L 158.070312 147.75 L 163.347656 149.582031 C 169.890625 151.851562 175.203125 154.875 179.125 158.574219 C 184.863281 163.976562 187.734375 170.964844 187.667969 179.34375 " fill-opacity="1" fill-rule="nonzero"/></g><g clip-path="url(#9cb88da283)"><path fill="#a61818" d="M 238.058594 119.28125 C 222.859375 119.28125 210.089844 124.324219 201.132812 133.863281 C 192.5 143.054688 187.9375 155.792969 187.9375 170.695312 L 187.9375 170.972656 C 187.9375 185.921875 192.542969 198.796875 201.261719 208.203125 C 210.367188 218.023438 223.253906 223.214844 238.53125 223.214844 L 274.011719 223.214844 C 276.238281 223.214844 278.042969 221.410156 278.042969 219.183594 L 278.042969 170.074219 C 278.042969 167.851562 276.238281 166.046875 274.011719 166.046875 L 241.28125 166.046875 C 238.96875 166.046875 237.09375 167.921875 237.09375 170.234375 L 237.09375 180.164062 C 237.09375 182.476562 238.96875 184.347656 241.28125 184.347656 L 246.847656 184.347656 L 246.847656 187.988281 C 246.847656 190.214844 245.042969 192.019531 242.816406 192.019531 L 237.707031 192.019531 C 225.691406 192.019531 218.796875 184.5 218.796875 171.386719 L 218.796875 171.109375 C 218.796875 159.589844 224.570312 151.878906 234.234375 150.476562 C 235.269531 150.382812 236.316406 150.304688 237.339844 150.238281 L 237.476562 150.238281 C 237.53125 150.234375 237.585938 150.234375 237.640625 150.234375 L 237.722656 150.234375 L 240.183594 150.164062 L 265.273438 150.164062 C 278.035156 150.164062 289.585938 142.601562 294.691406 130.902344 L 299.757812 119.28125 L 238.058594 119.28125 " fill-opacity="1" fill-rule="nonzero"/></g><g fill="#a61818" fill-opacity="1"><g transform="translate(93.238152, 250.48321)"><g><path d="M 16.75 -9.4375 C 16.75 -7.164062 16.429688 -5.335938 15.796875 -3.953125 C 15.171875 -2.578125 14.222656 -1.570312 12.953125 -0.9375 C 11.691406 -0.3125 9.914062 0 7.625 0 L 1.875 0 L 1.875 -18.890625 L 7.578125 -18.890625 C 9.804688 -18.890625 11.578125 -18.566406 12.890625 -17.921875 C 14.203125 -17.273438 15.171875 -16.265625 15.796875 -14.890625 C 16.429688 -13.523438 16.75 -11.707031 16.75 -9.4375 Z M 12.78125 -9.46875 C 12.78125 -11.113281 12.617188 -12.332031 12.296875 -13.125 C 11.972656 -13.925781 11.421875 -14.5 10.640625 -14.84375 C 9.867188 -15.195312 8.722656 -15.375 7.203125 -15.375 L 5.734375 -15.375 L 5.734375 -3.515625 L 7.203125 -3.515625 C 8.722656 -3.515625 9.867188 -3.691406 10.640625 -4.046875 C 11.410156 -4.398438 11.957031 -4.984375 12.28125 -5.796875 C 12.613281 -6.617188 12.78125 -7.84375 12.78125 -9.46875 Z M 12.78125 -9.46875 "/></g></g></g><g fill="#a61818" fill-opacity="1"><g transform="translate(111.156772, 250.48321)"><g><path d="M 10.515625 -5.140625 C 10.515625 -3.148438 10.007812 -1.722656 9 -0.859375 C 8 -0.00390625 6.421875 0.421875 4.265625 0.421875 C 3.804688 0.421875 3.160156 0.351562 2.328125 0.21875 C 1.503906 0.0820312 0.816406 -0.09375 0.265625 -0.3125 L 1.453125 -3.734375 C 1.742188 -3.578125 2.207031 -3.410156 2.84375 -3.234375 C 3.488281 -3.066406 3.992188 -2.984375 4.359375 -2.984375 C 5.023438 -2.984375 5.507812 -3.070312 5.8125 -3.25 C 6.113281 -3.4375 6.328125 -3.757812 6.453125 -4.21875 C 6.578125 -4.675781 6.640625 -5.332031 6.640625 -6.1875 L 6.640625 -18.890625 L 10.515625 -18.890625 Z M 10.515625 -5.140625 "/></g></g></g><g fill="#a61818" fill-opacity="1"><g transform="translate(123.766673, 250.48321)"><g><path d="M 10.515625 0 L 1.390625 0 L 1.390625 -2.96875 L 4.03125 -2.96875 L 4.03125 -15.921875 L 1.390625 -15.921875 L 1.390625 -18.890625 L 10.515625 -18.890625 L 10.515625 -15.921875 L 7.890625 -15.921875 L 7.890625 -2.96875 L 10.515625 -2.96875 Z M 10.515625 0 "/></g></g></g><g fill="#a61818" fill-opacity="1"><g transform="translate(135.666925, 250.48321)"><g><path d="M 17 0 L 17 -12.6875 L 12.46875 -4.796875 L 10.234375 -4.796875 L 5.765625 -12.6875 L 5.765625 0 L 2.046875 0 L 2.046875 -18.890625 L 6.484375 -18.890625 L 11.40625 -9.921875 L 16.375 -18.890625 L 20.71875 -18.890625 L 20.71875 0 Z M 17 0 "/></g></g></g><g fill="#a61818" fill-opacity="1"><g transform="translate(158.416611, 250.48321)"><g><path d="M 10.515625 0 L 1.390625 0 L 1.390625 -2.96875 L 4.03125 -2.96875 L 4.03125 -15.921875 L 1.390625 -15.921875 L 1.390625 -18.890625 L 10.515625 -18.890625 L 10.515625 -15.921875 L 7.890625 -15.921875 L 7.890625 -2.96875 L 10.515625 -2.96875 Z M 10.515625 0 "/></g></g></g><g fill="#a61818" fill-opacity="1"><g transform="translate(170.324088, 250.48321)"><g/></g></g><g fill="#a61818" fill-opacity="1"><g transform="translate(177.038451, 250.48321)"><g/></g></g><g fill="#a61818" fill-opacity="1"><g transform="translate(183.752813, 250.48321)"><g/></g></g><g fill="#a61818" fill-opacity="1"><g transform="translate(190.467176, 250.48321)"><g/></g></g><g fill="#a61818" fill-opacity="1"><g transform="translate(197.181538, 250.48321)"><g/></g></g><g fill="#a61818" fill-opacity="1"><g transform="translate(203.895901, 250.48321)"><g/></g></g><g fill="#a61818" fill-opacity="1"><g transform="translate(210.610264, 250.48321)"><g/></g></g><g fill="#a61818" fill-opacity="1"><g transform="translate(217.324626, 250.48321)"><g/></g></g><g fill="#a61818" fill-opacity="1"><g transform="translate(224.038989, 250.48321)"><g/></g></g><g fill="#a61818" fill-opacity="1"><g transform="translate(230.753352, 250.48321)"><g/></g></g><g fill="#a61818" fill-opacity="1"><g transform="translate(237.467714, 250.48321)"><g/></g></g><g fill="#a61818" fill-opacity="1"><g transform="translate(244.187361, 250.48321)"><g><path d="M 14.53125 -13.578125 C 14.050781 -14.359375 13.460938 -14.9375 12.765625 -15.3125 C 12.078125 -15.6875 11.210938 -15.875 10.171875 -15.875 C 8.453125 -15.875 7.207031 -15.320312 6.4375 -14.21875 C 5.664062 -13.113281 5.28125 -11.46875 5.28125 -9.28125 C 5.28125 -7.113281 5.660156 -5.523438 6.421875 -4.515625 C 7.179688 -3.515625 8.40625 -3.015625 10.09375 -3.015625 C 11.363281 -3.015625 12.535156 -3.28125 13.609375 -3.8125 L 13.609375 -6.75 L 9.921875 -6.75 L 9.921875 -10.140625 L 17.46875 -10.140625 L 17.46875 -1.78125 C 16.59375 -1.132812 15.503906 -0.609375 14.203125 -0.203125 C 12.910156 0.191406 11.578125 0.390625 10.203125 0.390625 C 7.253906 0.390625 5.035156 -0.375 3.546875 -1.90625 C 2.054688 -3.445312 1.3125 -5.90625 1.3125 -9.28125 C 1.3125 -15.945312 4.242188 -19.28125 10.109375 -19.28125 C 11.828125 -19.28125 13.320312 -18.992188 14.59375 -18.421875 C 15.863281 -17.847656 16.832031 -17.007812 17.5 -15.90625 Z M 14.53125 -13.578125 "/></g></g></g><g fill="#a61818" fill-opacity="1"><g transform="translate(263.497983, 250.48321)"><g><path d="M 0.375 0 L 6.625 -18.890625 L 11.625 -18.890625 L 17.890625 0 L 13.953125 0 L 12.6875 -3.828125 L 5.421875 -3.828125 L 4.1875 0 Z M 6.515625 -7.203125 L 11.609375 -7.203125 L 9.0625 -15.015625 Z M 6.515625 -7.203125 "/></g></g></g><g clip-path="url(#e2b6626348)"><path fill="#a61818" d="M 314.707031 260.371094 C 322.511719 259.441406 331.519531 262.503906 338.683594 258.1875 C 345.644531 253.996094 344.9375 244.082031 344.617188 237.089844 C 343.894531 221.292969 340.09375 202.378906 350.984375 188.929688 C 353.566406 185.742188 356.839844 183.152344 360.503906 181.53125 C 358.144531 180.28125 355.964844 178.648438 354.070312 176.769531 C 348.507812 171.246094 345.46875 163.800781 344.269531 156.140625 C 342.917969 147.503906 343.773438 138.796875 344.414062 130.140625 C 344.742188 125.679688 345.007812 121.199219 344.8125 116.730469 C 344.664062 113.5 344.285156 109.628906 342.027344 107.105469 C 339.40625 104.175781 334.945312 103.4375 331.210938 103.351562 C 326.191406 103.234375 321.234375 104.019531 316.21875 103.421875 C 314.246094 103.1875 312.566406 98.304688 315.316406 98.632812 C 323.183594 99.566406 331.269531 96.953125 338.789062 100.40625 C 346.015625 103.71875 348.328125 111.511719 348.65625 118.867188 C 349.054688 127.839844 347.632812 136.761719 347.402344 145.71875 C 347.199219 153.621094 347.898438 162.050781 352.015625 168.992188 C 355.984375 175.6875 363.640625 180.230469 371.511719 179.132812 C 373.210938 178.894531 375 182.21875 374.167969 183.515625 C 374.125 184.265625 373.710938 184.792969 372.738281 184.660156 C 365.628906 183.671875 358.675781 187.546875 354.296875 192.953125 C 349.226562 199.210938 347.546875 207.457031 347.273438 215.328125 C 346.96875 224.121094 348.332031 232.859375 348.550781 241.636719 C 348.726562 248.746094 348.609375 257.605469 342.234375 262.21875 C 334.789062 267.613281 324.933594 264.242188 316.546875 265.238281 C 314.492188 265.492188 312.339844 260.652344 314.707031 260.371094 Z M 314.707031 260.371094 " fill-opacity="1" fill-rule="nonzero"/></g><path fill="#a61818" d="M 56.667969 255.683594 C 49.332031 254.808594 40.863281 257.6875 34.128906 253.632812 C 27.585938 249.691406 28.25 240.371094 28.550781 233.796875 C 29.230469 218.953125 32.800781 201.171875 22.566406 188.53125 C 20.140625 185.535156 17.0625 183.101562 13.617188 181.574219 C 15.835938 180.398438 17.882812 178.867188 19.664062 177.097656 C 24.894531 171.910156 27.753906 164.910156 28.878906 157.710938 C 30.152344 149.589844 29.34375 141.40625 28.742188 133.269531 C 28.433594 129.078125 28.183594 124.867188 28.371094 120.664062 C 28.507812 117.625 28.863281 113.992188 30.984375 111.617188 C 33.449219 108.863281 37.644531 108.167969 41.152344 108.085938 C 45.871094 107.980469 50.53125 108.71875 55.246094 108.15625 C 57.101562 107.933594 58.679688 103.34375 56.09375 103.652344 C 48.699219 104.53125 41.097656 102.074219 34.03125 105.316406 C 27.234375 108.433594 25.0625 115.757812 24.753906 122.671875 C 24.378906 131.109375 25.71875 139.496094 25.933594 147.914062 C 26.125 155.339844 25.46875 163.261719 21.597656 169.789062 C 17.867188 176.085938 10.671875 180.355469 3.273438 179.320312 C 1.671875 179.097656 -0.0078125 182.222656 0.773438 183.441406 C 0.816406 184.144531 1.207031 184.644531 2.117188 184.515625 C 8.800781 183.585938 15.335938 187.230469 19.453125 192.3125 C 24.21875 198.195312 25.796875 205.945312 26.054688 213.34375 C 26.34375 221.609375 25.058594 229.824219 24.855469 238.074219 C 24.6875 244.757812 24.800781 253.082031 30.789062 257.421875 C 37.789062 262.488281 47.054688 259.320312 54.9375 260.261719 C 56.871094 260.5 58.890625 255.949219 56.667969 255.683594 Z M 56.667969 255.683594 " fill-opacity="1" fill-rule="nonzero"/></svg>