<svg xmlns="http://www.w3.org/2000/svg" xmlns:xlink="http://www.w3.org/1999/xlink" width="500" zoomAndPan="magnify" viewBox="0 0 375 374.999991" height="500" preserveAspectRatio="xMidYMid meet" version="1.0"><defs><g/><clipPath id="180bf213fa"><path d="M 75.230469 117.914062 L 187.730469 117.914062 L 187.730469 225.164062 L 75.230469 225.164062 Z M 75.230469 117.914062 " clip-rule="nonzero"/></clipPath><clipPath id="007cb9b319"><path d="M 187.9375 119.554688 L 299.6875 119.554688 L 299.6875 223.804688 L 187.9375 223.804688 Z M 187.9375 119.554688 " clip-rule="nonzero"/></clipPath><clipPath id="90918a900e"><path d="M 313 98 L 374.992188 98 L 374.992188 267 L 313 267 Z M 313 98 " clip-rule="nonzero"/></clipPath></defs><g clip-path="url(#180bf213fa)"><path fill="#a61818" d="M 185.984375 153.789062 C 179.890625 131.335938 161.445312 117.929688 136.640625 117.929688 L 75.230469 117.929688 L 76.441406 120.707031 C 81.648438 132.636719 93.421875 140.347656 106.441406 140.351562 L 123.164062 140.351562 L 123.300781 140.347656 C 123.9375 140.304688 126.285156 140.160156 129.808594 140.160156 C 133.195312 140.160156 136.648438 140.292969 140.054688 140.554688 L 140.390625 140.582031 C 153.4375 141.609375 171.3125 145.019531 182.359375 155.417969 L 182.5 155.550781 C 182.558594 155.605469 182.617188 155.65625 182.671875 155.714844 L 187.929688 160.949219 Z M 187.667969 179.664062 L 187.652344 179.878906 C 184.335938 207.855469 164.582031 225.234375 136.09375 225.234375 L 96.917969 225.234375 L 96.917969 172.269531 L 98.898438 172.269531 C 110.371094 172.269531 119.699219 181.601562 119.699219 193.070312 L 119.699219 202.449219 L 137.050781 202.449219 C 145.597656 202.449219 152.792969 199.640625 157.867188 194.332031 C 163.027344 188.925781 165.753906 181.117188 165.753906 171.742188 L 165.753906 171.421875 C 165.753906 164.164062 164.160156 157.90625 161.011719 152.820312 L 158.070312 148.070312 L 163.347656 149.902344 C 169.890625 152.171875 175.203125 155.199219 179.125 158.894531 C 184.863281 164.296875 187.734375 171.285156 187.667969 179.664062 " fill-opacity="1" fill-rule="nonzero"/></g><g clip-path="url(#007cb9b319)"><path fill="#000000" d="M 238.058594 119.601562 C 222.859375 119.601562 210.089844 124.644531 201.132812 134.183594 C 192.5 143.375 187.9375 156.113281 187.9375 171.019531 L 187.9375 171.292969 C 187.9375 186.242188 192.542969 199.117188 201.261719 208.523438 C 210.367188 218.34375 223.253906 223.535156 238.53125 223.535156 L 274.011719 223.535156 C 276.238281 223.535156 278.042969 221.730469 278.042969 219.503906 L 278.042969 170.398438 C 278.042969 168.171875 276.238281 166.367188 274.011719 166.367188 L 241.28125 166.367188 C 238.96875 166.367188 237.09375 168.242188 237.09375 170.554688 L 237.09375 180.484375 C 237.09375 182.796875 238.96875 184.671875 241.28125 184.671875 L 246.847656 184.671875 L 246.847656 188.308594 C 246.847656 190.535156 245.042969 192.339844 242.816406 192.339844 L 237.707031 192.339844 C 225.691406 192.339844 218.796875 184.820312 218.796875 171.707031 L 218.796875 171.433594 C 218.796875 159.914062 224.570312 152.203125 234.234375 150.796875 C 235.269531 150.703125 236.316406 150.625 237.339844 150.5625 L 237.476562 150.558594 C 237.53125 150.558594 237.585938 150.554688 237.640625 150.554688 L 237.722656 150.554688 L 240.183594 150.484375 L 265.273438 150.484375 C 278.035156 150.484375 289.585938 142.921875 294.691406 131.226562 L 299.757812 119.601562 L 238.058594 119.601562 " fill-opacity="1" fill-rule="nonzero"/></g><g fill="#a61818" fill-opacity="1"><g transform="translate(93.238152, 250.804877)"><g><path d="M 16.75 -9.4375 C 16.75 -7.164062 16.429688 -5.335938 15.796875 -3.953125 C 15.171875 -2.578125 14.222656 -1.570312 12.953125 -0.9375 C 11.691406 -0.3125 9.914062 0 7.625 0 L 1.875 0 L 1.875 -18.890625 L 7.578125 -18.890625 C 9.804688 -18.890625 11.578125 -18.566406 12.890625 -17.921875 C 14.203125 -17.273438 15.171875 -16.265625 15.796875 -14.890625 C 16.429688 -13.523438 16.75 -11.707031 16.75 -9.4375 Z M 12.78125 -9.46875 C 12.78125 -11.113281 12.617188 -12.332031 12.296875 -13.125 C 11.972656 -13.925781 11.421875 -14.5 10.640625 -14.84375 C 9.867188 -15.195312 8.722656 -15.375 7.203125 -15.375 L 5.734375 -15.375 L 5.734375 -3.515625 L 7.203125 -3.515625 C 8.722656 -3.515625 9.867188 -3.691406 10.640625 -4.046875 C 11.410156 -4.398438 11.957031 -4.984375 12.28125 -5.796875 C 12.613281 -6.617188 12.78125 -7.84375 12.78125 -9.46875 Z M 12.78125 -9.46875 "/></g></g></g><g fill="#a61818" fill-opacity="1"><g transform="translate(111.156772, 250.804877)"><g><path d="M 10.515625 -5.140625 C 10.515625 -3.148438 10.007812 -1.722656 9 -0.859375 C 8 -0.00390625 6.421875 0.421875 4.265625 0.421875 C 3.804688 0.421875 3.160156 0.351562 2.328125 0.21875 C 1.503906 0.0820312 0.816406 -0.09375 0.265625 -0.3125 L 1.453125 -3.734375 C 1.742188 -3.578125 2.207031 -3.410156 2.84375 -3.234375 C 3.488281 -3.066406 3.992188 -2.984375 4.359375 -2.984375 C 5.023438 -2.984375 5.507812 -3.070312 5.8125 -3.25 C 6.113281 -3.4375 6.328125 -3.757812 6.453125 -4.21875 C 6.578125 -4.675781 6.640625 -5.332031 6.640625 -6.1875 L 6.640625 -18.890625 L 10.515625 -18.890625 Z M 10.515625 -5.140625 "/></g></g></g><g fill="#a61818" fill-opacity="1"><g transform="translate(123.766673, 250.804877)"><g><path d="M 10.515625 0 L 1.390625 0 L 1.390625 -2.96875 L 4.03125 -2.96875 L 4.03125 -15.921875 L 1.390625 -15.921875 L 1.390625 -18.890625 L 10.515625 -18.890625 L 10.515625 -15.921875 L 7.890625 -15.921875 L 7.890625 -2.96875 L 10.515625 -2.96875 Z M 10.515625 0 "/></g></g></g><g fill="#a61818" fill-opacity="1"><g transform="translate(135.666925, 250.804877)"><g><path d="M 17 0 L 17 -12.6875 L 12.46875 -4.796875 L 10.234375 -4.796875 L 5.765625 -12.6875 L 5.765625 0 L 2.046875 0 L 2.046875 -18.890625 L 6.484375 -18.890625 L 11.40625 -9.921875 L 16.375 -18.890625 L 20.71875 -18.890625 L 20.71875 0 Z M 17 0 "/></g></g></g><g fill="#a61818" fill-opacity="1"><g transform="translate(158.416611, 250.804877)"><g><path d="M 10.515625 0 L 1.390625 0 L 1.390625 -2.96875 L 4.03125 -2.96875 L 4.03125 -15.921875 L 1.390625 -15.921875 L 1.390625 -18.890625 L 10.515625 -18.890625 L 10.515625 -15.921875 L 7.890625 -15.921875 L 7.890625 -2.96875 L 10.515625 -2.96875 Z M 10.515625 0 "/></g></g></g><g fill="#a61818" fill-opacity="1"><g transform="translate(170.324088, 250.804877)"><g/></g></g><g fill="#a61818" fill-opacity="1"><g transform="translate(177.038451, 250.804877)"><g/></g></g><g fill="#a61818" fill-opacity="1"><g transform="translate(183.752813, 250.804877)"><g/></g></g><g fill="#a61818" fill-opacity="1"><g transform="translate(190.467176, 250.804877)"><g/></g></g><g fill="#a61818" fill-opacity="1"><g transform="translate(197.181538, 250.804877)"><g/></g></g><g fill="#a61818" fill-opacity="1"><g transform="translate(203.895901, 250.804877)"><g/></g></g><g fill="#a61818" fill-opacity="1"><g transform="translate(210.610264, 250.804877)"><g/></g></g><g fill="#a61818" fill-opacity="1"><g transform="translate(217.324626, 250.804877)"><g/></g></g><g fill="#a61818" fill-opacity="1"><g transform="translate(224.038989, 250.804877)"><g/></g></g><g fill="#a61818" fill-opacity="1"><g transform="translate(230.753352, 250.804877)"><g/></g></g><g fill="#a61818" fill-opacity="1"><g transform="translate(237.467714, 250.804877)"><g/></g></g><g fill="#000000" fill-opacity="1"><g transform="translate(244.187361, 250.804877)"><g><path d="M 14.53125 -13.578125 C 14.050781 -14.359375 13.460938 -14.9375 12.765625 -15.3125 C 12.078125 -15.6875 11.210938 -15.875 10.171875 -15.875 C 8.453125 -15.875 7.207031 -15.320312 6.4375 -14.21875 C 5.664062 -13.113281 5.28125 -11.46875 5.28125 -9.28125 C 5.28125 -7.113281 5.660156 -5.523438 6.421875 -4.515625 C 7.179688 -3.515625 8.40625 -3.015625 10.09375 -3.015625 C 11.363281 -3.015625 12.535156 -3.28125 13.609375 -3.8125 L 13.609375 -6.75 L 9.921875 -6.75 L 9.921875 -10.140625 L 17.46875 -10.140625 L 17.46875 -1.78125 C 16.59375 -1.132812 15.503906 -0.609375 14.203125 -0.203125 C 12.910156 0.191406 11.578125 0.390625 10.203125 0.390625 C 7.253906 0.390625 5.035156 -0.375 3.546875 -1.90625 C 2.054688 -3.445312 1.3125 -5.90625 1.3125 -9.28125 C 1.3125 -15.945312 4.242188 -19.28125 10.109375 -19.28125 C 11.828125 -19.28125 13.320312 -18.992188 14.59375 -18.421875 C 15.863281 -17.847656 16.832031 -17.007812 17.5 -15.90625 Z M 14.53125 -13.578125 "/></g></g></g><g fill="#000000" fill-opacity="1"><g transform="translate(263.497983, 250.804877)"><g><path d="M 0.375 0 L 6.625 -18.890625 L 11.625 -18.890625 L 17.890625 0 L 13.953125 0 L 12.6875 -3.828125 L 5.421875 -3.828125 L 4.1875 0 Z M 6.515625 -7.203125 L 11.609375 -7.203125 L 9.0625 -15.015625 Z M 6.515625 -7.203125 "/></g></g></g><g clip-path="url(#90918a900e)"><path fill="#000000" d="M 314.390625 261.015625 C 322.234375 260.085938 331.292969 263.152344 338.492188 258.832031 C 345.488281 254.628906 344.78125 244.695312 344.457031 237.6875 C 343.730469 221.863281 339.914062 202.910156 350.859375 189.433594 C 353.453125 186.238281 356.746094 183.644531 360.429688 182.019531 C 358.054688 180.765625 355.867188 179.132812 353.960938 177.25 C 348.371094 171.71875 345.3125 164.257812 344.105469 156.582031 C 342.75 147.925781 343.609375 139.203125 344.253906 130.527344 C 344.582031 126.058594 344.851562 121.570312 344.652344 117.09375 C 344.507812 113.851562 344.125 109.976562 341.855469 107.449219 C 339.222656 104.511719 334.734375 103.769531 330.984375 103.683594 C 325.9375 103.570312 320.953125 104.355469 315.910156 103.757812 C 313.929688 103.519531 312.238281 98.628906 315.003906 98.957031 C 322.910156 99.894531 331.042969 97.277344 338.597656 100.734375 C 345.867188 104.054688 348.191406 111.863281 348.519531 119.230469 C 348.917969 128.222656 347.488281 137.164062 347.257812 146.136719 C 347.054688 154.054688 347.753906 162.5 351.894531 169.457031 C 355.882812 176.167969 363.582031 180.71875 371.492188 179.617188 C 373.203125 179.378906 375 182.710938 374.164062 184.007812 C 374.121094 184.761719 373.703125 185.289062 372.726562 185.15625 C 365.582031 184.164062 358.589844 188.046875 354.1875 193.464844 C 349.09375 199.738281 347.40625 208 347.128906 215.886719 C 346.820312 224.695312 348.195312 233.453125 348.414062 242.246094 C 348.589844 249.371094 348.472656 258.246094 342.0625 262.871094 C 334.578125 268.273438 324.671875 264.894531 316.242188 265.898438 C 314.175781 266.148438 312.011719 261.300781 314.390625 261.015625 Z M 314.390625 261.015625 " fill-opacity="1" fill-rule="nonzero"/></g><path fill="#a61818" d="M 56.667969 255.683594 C 49.332031 254.808594 40.863281 257.6875 34.128906 253.632812 C 27.585938 249.691406 28.25 240.371094 28.550781 233.796875 C 29.230469 218.953125 32.800781 201.171875 22.566406 188.53125 C 20.140625 185.535156 17.0625 183.101562 13.617188 181.574219 C 15.835938 180.398438 17.882812 178.867188 19.664062 177.097656 C 24.894531 171.910156 27.753906 164.910156 28.878906 157.710938 C 30.152344 149.589844 29.34375 141.40625 28.742188 133.269531 C 28.433594 129.078125 28.183594 124.867188 28.371094 120.664062 C 28.507812 117.625 28.863281 113.992188 30.984375 111.617188 C 33.449219 108.863281 37.644531 108.167969 41.152344 108.085938 C 45.871094 107.980469 50.53125 108.71875 55.246094 108.15625 C 57.101562 107.933594 58.679688 103.34375 56.09375 103.652344 C 48.699219 104.53125 41.097656 102.074219 34.03125 105.316406 C 27.234375 108.433594 25.0625 115.757812 24.753906 122.671875 C 24.378906 131.109375 25.71875 139.496094 25.933594 147.914062 C 26.125 155.339844 25.46875 163.261719 21.597656 169.789062 C 17.867188 176.085938 10.671875 180.355469 3.273438 179.320312 C 1.671875 179.097656 -0.0078125 182.222656 0.773438 183.441406 C 0.816406 184.144531 1.207031 184.644531 2.117188 184.515625 C 8.800781 183.585938 15.335938 187.230469 19.453125 192.3125 C 24.21875 198.195312 25.796875 205.945312 26.054688 213.34375 C 26.34375 221.609375 25.058594 229.824219 24.855469 238.074219 C 24.6875 244.757812 24.800781 253.082031 30.789062 257.421875 C 37.789062 262.488281 47.054688 259.320312 54.9375 260.261719 C 56.871094 260.5 58.890625 255.949219 56.667969 255.683594 Z M 56.667969 255.683594 " fill-opacity="1" fill-rule="nonzero"/></svg>