<svg viewBox="0 0 800 400" width="800" height="400" xmlns="http://www.w3.org/2000/svg">
  <defs>
    <linearGradient id="bg1" x1="0%" y1="0%" x2="100%" y2="100%">
      <stop offset="0%" style="stop-color:#0D1117"/>
      <stop offset="100%" style="stop-color:#1a1f2e"/>
    </linearGradient>
  </defs>
  <rect width="800" height="400" fill="url(#bg1)" rx="16"/>
  <!-- Phone icon -->
  <rect x="80" y="80" width="120" height="220" rx="16" stroke="#00FF88" stroke-width="3" fill="none" opacity="0.8"/>
  <rect x="95" y="110" width="90" height="160" rx="4" fill="#00FF88" opacity="0.1"/>
  <circle cx="140" cy="95" r="4" fill="#00FF88" opacity="0.6"/>
  <rect x="120" y="280" width="40" height="6" rx="3" fill="#00FF88" opacity="0.4"/>
  <!-- Chat bubbles -->
  <rect x="100" y="130" width="70" height="24" rx="8" fill="#00FF88" opacity="0.3"/>
  <rect x="110" y="165" width="60" height="24" rx="8" fill="#00E5FF" opacity="0.3"/>
  <rect x="100" y="200" width="75" height="24" rx="8" fill="#00FF88" opacity="0.3"/>
  <!-- Website icon -->
  <rect x="260" y="100" width="180" height="140" rx="8" stroke="#00E5FF" stroke-width="2" fill="none" opacity="0.6"/>
  <rect x="260" y="100" width="180" height="24" rx="8" fill="#00E5FF" opacity="0.15"/>
  <circle cx="275" cy="112" r="4" fill="#FF6B6B" opacity="0.6"/>
  <circle cx="290" cy="112" r="4" fill="#F5A623" opacity="0.6"/>
  <circle cx="305" cy="112" r="4" fill="#00FF88" opacity="0.6"/>
  <rect x="275" y="138" width="80" height="8" rx="2" fill="#fff" opacity="0.2"/>
  <rect x="275" y="155" width="150" height="6" rx="2" fill="#fff" opacity="0.1"/>
  <rect x="275" y="168" width="130" height="6" rx="2" fill="#fff" opacity="0.1"/>
  <rect x="275" y="195" width="60" height="24" rx="6" fill="#00FF88" opacity="0.3"/>
  <!-- Arrow -->
  <path d="M210 200 L250 200" stroke="#F5A623" stroke-width="2" stroke-dasharray="6 4" opacity="0.6"/>
  <polygon points="248,194 260,200 248,206" fill="#F5A623" opacity="0.6"/>
  <!-- Text -->
  <text x="500" y="140" font-family="Syne, sans-serif" font-size="36" font-weight="800" fill="#F9FAFB">Pack Starter</text>
  <text x="500" y="175" font-family="Syne, sans-serif" font-size="20" fill="#00FF88" font-weight="700">Assistant IA + Site Web</text>
  <text x="500" y="215" font-family="Inter, sans-serif" font-size="15" fill="#9CA3AF">📱 Modifiez votre site par WhatsApp</text>
  <text x="500" y="240" font-family="Inter, sans-serif" font-size="15" fill="#9CA3AF">🤖 Chatbot client 24/7</text>
  <text x="500" y="265" font-family="Inter, sans-serif" font-size="15" fill="#9CA3AF">🌐 Site professionnel inclus</text>
  <text x="500" y="310" font-family="Syne, sans-serif" font-size="28" font-weight="800" fill="#00FF88">75 000 FCFA</text>
</svg>
