<svg xmlns="http://www.w3.org/2000/svg" viewBox="0 0 360 100" width="1440" height="400" fill="none">
<rect width="360" height="100" fill="#060810"/>
<g transform="translate(0,0)">
  <path d="M26 22 Q20 22 20 30 L20 43 Q20 50 14 50 Q20 50 20 57 L20 70 Q20 78 26 78" stroke="#00FF88" stroke-width="3" fill="none" stroke-linecap="round" opacity=".9"/>
  <rect x="34" y="26" width="6" height="48" rx="3" fill="#00FF88"/>
  <path d="M40 26 Q64 26 64 50 Q64 74 40 74" stroke="#00FF88" stroke-width="5.5" fill="none" stroke-linecap="round"/>
  <path d="M74 22 Q80 22 80 30 L80 43 Q80 50 86 50 Q80 50 80 57 L80 70 Q80 78 74 78" stroke="#00E5FF" stroke-width="3" fill="none" stroke-linecap="round" opacity=".9"/>
  <circle cx="52" cy="50" r="4" fill="#F5A623"/>
  <circle cx="52" cy="50" r="7" stroke="#F5A623" stroke-width=".8" fill="none" opacity=".3"/>
</g>
<text x="115" y="52" font-family="Syne,sans-serif" font-weight="800" font-size="34" fill="#F9FAFB" letter-spacing="-0.5">DJIMIGA</text>
<text x="115" y="72" font-family="monospace" font-weight="400" font-size="12" fill="#00FF88" letter-spacing="2.5">TECH</text>
</svg>
