<svg xmlns="http://www.w3.org/2000/svg" viewBox="0 0 360 100" width="1440" height="400" fill="none">
<g transform="translate(0,0)">
  <path d="M26 22 Q20 22 20 30 L20 43 Q20 50 14 50 Q20 50 20 57 L20 70 Q20 78 26 78" stroke="#111827" stroke-width="3" fill="none" stroke-linecap="round" opacity=".8"/>
  <rect x="34" y="26" width="6" height="48" rx="3" fill="#111827"/>
  <path d="M40 26 Q64 26 64 50 Q64 74 40 74" stroke="#111827" stroke-width="5.5" fill="none" stroke-linecap="round"/>
  <path d="M74 22 Q80 22 80 30 L80 43 Q80 50 86 50 Q80 50 80 57 L80 70 Q80 78 74 78" stroke="#0077AA" stroke-width="3" fill="none" stroke-linecap="round" opacity=".8"/>
  <circle cx="52" cy="50" r="4" fill="#D4850F"/>
  <circle cx="52" cy="50" r="7" stroke="#D4850F" stroke-width=".8" fill="none" opacity=".25"/>
</g>
<text x="115" y="52" font-family="Syne,sans-serif" font-weight="800" font-size="34" fill="#111827" letter-spacing="-0.5">DJIMIGA</text>
<text x="115" y="72" font-family="monospace" font-weight="400" font-size="12" fill="#374151" letter-spacing="2.5">TECH</text>
</svg>
